<svg xmlns="http://www.w3.org/2000/svg" width="29.014" height="25.924" viewBox="0 0 7.677 6.859"><g transform="translate(-89.107 -167.739)"><path fill="#f60" d="m 90.83845,170.94367 a 2.1166665,2.1166665 0 0 1 1.972507,-1.34888 2.1166665,2.1166665 0 0 1 2.116666,2.11667 v 0 a 2.1166665,2.1166665 0 0 1 -0.910134,1.73912" paint-order="fill markers stroke"/><path fill="none" stroke="#fc0" stroke-linecap="round" stroke-linejoin="round" stroke-width=".529" d="M92.810957 168.00727v1.05833M96.515136 171.71145h-1.05833"/><path fill="#f60" stroke="#fc0" stroke-linecap="round" stroke-linejoin="round" stroke-width=".529" d="m 95.430215,169.0922 -0.748353,0.74835"/><path fill="none" stroke="#fc0" stroke-linecap="round" stroke-linejoin="round" stroke-width=".529" d="M95.430207 174.3307l-.748352-.74835M90.940051 169.84054l-.748352-.74835"/><path fill="#00aad4" d="m 91.752623,170.65345 a 1.5875,1.5875 0 0 0 -1.496032,1.06298 1.0583333,1.0583333 0 0 0 -0.09147,-0.005 1.0583333,1.0583333 0 0 0 -1.058334,1.05833 1.0583333,1.0583333 0 0 0 1.058334,1.05834 1.0583333,1.0583333 0 0 0 0.703833,-0.26975 1.5875,1.5875 0 0 0 0.883666,0.26975 1.5875,1.5875 0 0 0 0.952397,-0.31936 0.79374997,0.79374997 0 0 0 0.635103,0.31936 0.79374997,0.79374997 0 0 0 0.79375,-0.79375 0.79374997,0.79374997 0 0 0 -0.79375,-0.79375 1.5875,1.5875 0 0 0 -1.5875,-1.5875 z" paint-order="fill markers stroke"/></g></svg>